<?xml version="1.0" encoding="UTF-8"?>
<!DOCTYPE svg PUBLIC "-//W3C//DTD SVG 1.1//EN" "http://www.w3.org/Graphics/SVG/1.1/DTD/svg11.dtd">
<!-- Creator: CorelDRAW 2020 (64-Bit) -->
<svg xmlns="http://www.w3.org/2000/svg" xml:space="preserve" width="8.5in" height="11in" version="1.1" style="shape-rendering:geometricPrecision; text-rendering:geometricPrecision; image-rendering:optimizeQuality; fill-rule:evenodd; clip-rule:evenodd"
viewBox="0 0 8500 11000"
 xmlns:xlink="http://www.w3.org/1999/xlink"
 xmlns:xodm="http://www.corel.com/coreldraw/odm/2003">
 <defs>
  <style type="text/css">
   <![CDATA[
    .fil0 {fill:white}
   ]]>
  </style>
 </defs>
 <g id="Layer_x0020_1">
  <metadata id="CorelCorpID_0Corel-Layer"/>
  <g id="_2761659484112">
   <path class="fil0" d="M2009.5 5555.74c0,-35.32 10.36,-65.31 10.06,-99.94 -0.24,-27.94 6.48,-33.91 10.85,-59.15l46.04 -127.3c0.32,-0.71 0.7,-1.6 1.04,-2.3l3.58 -6.43c8.24,-15.8 12.78,-32.44 23.13,-46.87 23.28,-32.44 39.41,-70.96 66.66,-100.01l55.86 -67.47c0.62,-0.75 2.47,-2.83 3.12,-3.55l160.63 -146.04 296.14 -183.86c5.43,-2.75 9.65,-4.67 15.55,-7.78l168.21 -75.12c18.96,-7.04 36.25,-9.4 52.65,-17.35 8.14,-3.94 -2.06,-0.69 8.52,-4.81 9.32,-3.63 10.98,-1.31 21.06,-5.61 20.06,-8.55 67.04,-27.06 86.69,-29.98 15.7,-2.33 18.83,-7.13 35.95,-10.71l35.65 -11.02c8.48,-1.94 12.32,-0.56 20.34,-2.99 12.37,-3.74 5.25,-4.37 16.04,-7.29 8.16,-2.21 11.12,-0.59 20.13,-3.2l36.94 -9.72c9.43,-1.39 11.83,-1.75 19,-4.33 32.3,-11.66 20.41,-1.69 58.47,-14.87 14.19,-4.91 24.87,-0.26 40.61,-6.05 8.26,-3.04 7.16,-3.95 17.52,-5.82l59.11 -10.89c13.17,-3.07 26.93,-1.31 43.44,-3.23 14.19,-1.65 21.25,-8.41 37.08,-9.59 17.42,-1.29 28.87,0.08 43.06,-3.61 20.5,-5.33 14.97,-6.26 43.62,-6.38 18.89,-0.08 22.99,-3.38 43.25,-3.41 33.39,-0.06 59.37,-10.26 130.01,-9.99 101.37,0.37 182.43,-18.13 284.23,-4.26l89.07 4.27c81.01,-0.42 107.25,11.87 173.27,13.4 32.87,0.76 50.2,9.25 83.49,9.83 21.49,0.38 21.19,5.16 37.91,8.76 13.99,3.02 28.54,0.27 43.61,3.06l77.48 15.85c20.52,7.91 20.96,2.28 39.91,6.76 17.81,4.21 10.08,6.31 40.56,9.44 14.92,1.53 20.49,7.27 36.5,10.17l37.9 8.76c13.94,5.6 19.38,2.95 36.26,10.41 19.8,8.74 51.45,10.75 73.59,19.74l71.23 22.1c8.19,3.67 4.24,3.55 16.44,6.89 4.38,1.2 6.81,1.24 10.79,2.55l26.8 9.87c8.87,2.63 8.66,4.25 16.2,7.13l288.97 127.69c0.67,0.34 1.5,0.82 2.16,1.17l41.37 21.96c0.64,0.36 1.44,0.89 2.07,1.26l122.98 77.02c0.55,0.43 1.28,1.08 1.83,1.5l74.88 55.12c3.69,2.88 8.13,6.93 12.82,10.52l67.91 58.76c0.5,0.46 1.22,1.14 1.73,1.6 0.51,0.46 1.22,1.14 1.73,1.61l27.65 25.69c1.73,1.63 3.74,3.66 5.04,4.96l98.94 111.06c0.47,0.5 1.18,1.19 1.65,1.69 14.95,15.83 64.24,93.34 74.04,115.95l6.91 13.09c0.33,0.71 0.69,1.6 1.01,2.33l18.37 41.63c3.63,7 3.78,7.74 7.48,15.85 20.59,45.14 12.21,37.52 23.34,70 2.91,8.5 3.98,7.39 6.46,16.87 2.32,8.87 1.06,12.22 2.96,20.37 4.48,19.12 9.59,5.58 9.22,37.44 -0.55,46.79 16.62,87.06 5.81,132.76 -5.57,23.57 -1.58,58.62 -6.73,83.27 -1.84,8.79 -6.45,12.56 -8.31,21.69 -2.57,12.59 0.2,14.87 -3.8,26.2 -4.83,13.69 -4.35,3.47 -8.09,21.91l-31.67 88.33c-11.17,24.69 -15.54,38.34 -29.79,60.21 -3.96,6.08 -0.63,0.3 -5.11,8.22l-4.7 8.63c-29.31,49.9 -61.62,99.62 -101.33,142 -0.47,0.5 -1.16,1.21 -1.63,1.71l-120.07 119.93c-21.54,19.97 -46.86,35.29 -68.89,54.44l-22.21 21.12c-21.12,23.46 -27.11,44.14 -26.96,79.71 2.84,646.65 0.01,1293.36 0.01,1940.01 0,83.46 2.45,39.24 -8.71,111.28 -3.26,21.02 -2.04,29.41 -9.97,50.04l-23.94 59.39c-14.37,27.48 -22.79,36.11 -40.22,59.78l-46.42 43.58c-3.57,2.97 -5.01,4.2 -9.06,7.61l-91.76 44.91c-32.35,8.87 -8.06,6.58 -49.46,10.54 -18.53,1.77 -33.21,9.54 -53.79,9.54l-2283.33 0c-19.35,0 -34.45,-7.1 -50.81,-9.19 -9.69,-1.24 -19.51,0.15 -28.39,-1.61 -7.58,-1.5 -13.45,-6.02 -21.46,-8.54 -8.07,-2.54 -16.62,-3.02 -24.15,-5.85l-48.15 -25.19c-45.89,-28.59 -85.2,-67.35 -112.68,-113.98l-6.4 -13.61c-10.17,-20.66 -14.7,-28.48 -21.22,-52.11 -2.93,-10.59 -6.26,-12.54 -8.64,-21.36 -2.57,-9.54 -0.94,-17.87 -1.9,-28.1 -4.77,-50.52 -9.55,-7.19 -9.55,-110.45l0 -1940c0.12,-51 -10.59,-73.78 -47.85,-105.48l-68.49 -54.84c-0.51,-0.46 -1.21,-1.16 -1.71,-1.62 -0.5,-0.47 -1.2,-1.17 -1.7,-1.63l-129.54 -130.46c-9.67,-11.25 -16.61,-21.75 -25.92,-34.08 -9.52,-12.63 -16.57,-20.94 -26.25,-33.75l-39.62 -63.71c-0.37,-0.63 -0.87,-1.46 -1.24,-2.09l-22.4 -37.6c-2.29,-4.92 -2.38,-7.1 -4.54,-12.13l-54.93 -158.41c-2.05,-11.01 -6.44,-14.74 -8.19,-21.81 -1.96,-7.96 -2.79,-47.3 -3.74,-56.26l-7.23 -56.1zm-226.67 81.25l0 -178.81c0.59,-10.07 1.35,-17.22 2.31,-20.12 5.92,-17.8 4.65,-41.47 10.99,-59.01 3.66,-10.14 5.08,-10.18 6.46,-23.54 2.23,-21.55 8.37,-27.76 10.74,-49.26 2,-18.07 49.5,-134.07 59.2,-150.8 3.29,-5.68 0.53,-0.39 3.87,-6.13l19.35 -33.98c3.9,-6.19 0.72,-0.17 3.95,-6.05l9.98 -20.02c0.37,-0.62 0.88,-1.45 1.26,-2.07l12.28 -21.05c9.15,-18.43 20.59,-32.26 31.97,-48.03l55.25 -74.75 158.33 -161.67c2.87,-2.46 5.49,-4.92 8.73,-7.94 3.44,-3.21 3.15,-3 6.89,-6.44l47.94 -42.06c5.75,-4.56 11.61,-8.7 17.15,-12.85 5.91,-4.43 10.82,-8.19 17.1,-12.9 30.17,-22.63 65.58,-49.62 97.75,-68.91l180.54 -106.13c0.69,-0.34 1.59,-0.72 2.29,-1.05l120.38 -59.62c8.11,-3.46 2.22,-1.78 11.17,-5.5l139.12 -57.55c23.61,-8.11 43,-17.05 67.46,-22.53l22.2 -7.8c12.96,-6.19 11.29,-2.4 23.36,-6.64 10.4,-3.65 6.38,-4.7 21.65,-8.35l94.74 -28.59c14.93,-6.41 8.46,-2.44 25.09,-4.91 12.54,-1.87 10.52,-4.2 22.04,-7.96 10.25,-3.35 15.47,-2.83 25.21,-4.79 17.52,-3.54 6.52,-3.6 21.94,-8.06 10.82,-3.13 16.21,-0.54 26.09,-3.91 10.2,-3.48 5.52,-6.58 21.96,-8.04 14.07,-1.25 15.82,0.81 27.11,-2.89l102.84 -20.5c22.34,-1.63 20.13,-8.83 49.9,-10.1 22.11,-0.94 29.55,-9.06 50.05,-9.95 15.24,-0.67 45.1,-1.6 58.42,-4.91 6.92,-1.72 6.37,-2.64 12.62,-4.05l38.89 -4.44c10.59,-0.04 18.66,1.05 28.55,-1.45 59.07,-14.94 80.15,-5.42 138.22,-11.78 19.2,-2.11 32.88,-6.6 53.19,-6.81 41.5,-0.44 73.39,-3.2 116.8,-3.2l1460 -0c37.05,-0.08 66.73,3.34 106.66,3.34 34.73,0 71.13,0.57 103.76,6.24 30.99,5.39 68.84,2.56 99.81,6.86 18.78,2.61 28.13,7.08 49.65,7.02 19.78,-0.06 34.11,-0.3 49.94,3.4 32.67,7.63 62.07,8.09 93.38,16.62 18.15,4.94 34.01,0.58 52.15,4.51 8.34,1.81 11.68,4.55 19.99,6.68 10.31,2.64 13.22,1.45 24.15,2.52 14.67,1.44 28.61,8.24 42.76,10.58l43.08 10.26c11.13,3.02 15.93,0.98 27.2,2.8 7.59,1.22 12.59,4.63 19.78,6.89 16.59,5.21 26.18,1.17 44.87,8.47l65.7 17.63c13.53,2.43 10,4.5 19.04,7.63 8.42,2.92 17.07,2.22 25.26,4.74l192.55 64.11c39.24,10.3 79.5,30.15 117.26,46.07l132.77 60.56c0.64,0.36 1.46,0.87 2.11,1.22l74.49 38.84c5.39,3.07 5.34,3.94 10.09,6.57l22.08 11.25c0.66,0.36 1.51,0.81 2.18,1.16 0.67,0.35 1.56,0.76 2.24,1.1l109.98 66.69c32.15,21.17 65.01,40.37 95.7,64.3 0.55,0.43 1.33,1.03 1.88,1.45l79.74 63.59c0.54,0.43 1.27,1.09 1.81,1.52l102.64 94.03c0.49,0.48 1.19,1.17 1.69,1.65 0.49,0.48 1.21,1.15 1.71,1.62 0.5,0.47 1.24,1.13 1.74,1.59l59.39 63.94c9.33,11.3 15.52,20.16 25.15,31.52 0.44,0.52 1.08,1.28 1.52,1.81l22.69 27.31c9.66,12.43 15.43,20.1 25.13,31.53l76.9 126.44c0.37,0.65 4.2,7.53 4.72,8.61l27.68 65.66c0.26,0.87 0.4,1.8 0.68,2.66 0.27,0.83 0.48,1.76 0.77,2.57l6.74 13.26c2.39,5.55 1.28,4.81 3.31,10.03l1.98 4.68c0.33,0.68 0.86,1.47 1.2,2.13l12.34 34.33c3.01,7.88 4.87,10.81 6.11,20.56 2.38,18.76 8.43,24.74 10.31,43.02 2.44,23.74 7.13,20.09 13.7,66.3 2.68,18.87 6.51,8.72 6.51,20.15l0 220c0,8.46 -5.78,14.63 -7.36,25.98 -0.87,6.26 -2.19,21.48 -4.22,29.11 -2.66,10 -6.74,13.65 -8.02,25.31 -1.77,16.15 1.72,15.98 -3.7,29.64l-25.32 74.67c-6.3,13.43 -2.66,13.79 -7.2,26.13l-38.85 81.16c-0.33,0.71 -0.69,1.59 -1.01,2.32 -0.32,0.74 -0.61,1.66 -0.92,2.42l-7.12 16.21c-1.81,3.59 -3.3,7.32 -5.38,11.29 -4.55,8.65 -1.69,2.85 -6.48,10.19l-55.81 90.86c-10.35,14.31 -17.99,24.96 -28.13,38.54l-55.77 70.9c-0.47,0.5 -1.16,1.2 -1.63,1.7l-12.8 13.86c-0.47,0.5 -1.15,1.22 -1.61,1.72 -39.02,42.28 -73.46,77.9 -118.15,115.18 -0.09,0.07 -4.46,3.97 -5.27,4.73 -0.5,0.47 -1.19,1.17 -1.69,1.65l-6.6 6.74c-0.48,0.48 -1.17,1.19 -1.65,1.68 -30.58,30.23 -35.59,16.65 -35.32,68.01 3.22,616.64 0.01,1233.36 0.01,1850.01l-3.32 126.68c-0.79,28.88 -6.54,32.65 -9.75,56.92l-14.64 52.02c-10.15,24.11 -13.26,45.44 -25.85,67.48l-2.39 4.28c-12.93,24.65 -25.85,52.52 -42.04,74.63l-14.8 18.54c-3.24,3.73 -4.63,5.17 -7.67,9l-79.97 83.36c-18.14,15.01 -36.76,32.78 -56.61,43.39l-42.74 23.92c-49.78,30.23 -51.11,21.84 -91.26,38.75l-52.02 14.64c-24.27,3.21 -28.04,8.96 -56.92,9.75 -19.8,0.54 -35.44,3.32 -60.02,3.32l-3690 0c-33.26,0 -110.45,-6.32 -135.26,-18.07 -10.43,-4.94 0.76,-2.02 -11.96,-4.7 -27.35,-5.78 -55.16,-13.72 -80.82,-25.85l-127.89 -82.11c-3.64,-3 -5.07,-4.15 -9.13,-7.53l-33.57 -29.77c-4.38,-4.64 -2.18,-2.3 -6.31,-7.02l-40.72 -49.28c-2.98,-3.44 -1.84,-1.97 -4.67,-5.33l-41.96 -68.04c-5.28,-8.68 -6.56,-11.21 -10.66,-19.34l-52.37 -160.96c-11.91,-56.29 -4.69,-119.02 -4.69,-175.32l0 -1820c0.09,-31.97 3,-36.69 -16.25,-53.75l-30.71 -29.29c-0.72,-0.65 -2.81,-2.49 -3.56,-3.11l-72.03 -64.64c-6.65,-7.19 -7.06,-9.57 -13.31,-16.68 -9.79,-11.11 -19.13,-18.87 -29.61,-30.39l-4.81 -5.19c-0.46,-0.5 -1.15,-1.22 -1.61,-1.72l-9.57 -10.43c-0.47,-0.5 -1.16,-1.21 -1.63,-1.71l-64.55 -82.12 -121.77 -211.56c-8.06,-14.12 -13.89,-25.9 -17.27,-42.73 -3.34,-16.65 -3.38,-9.85 -8.08,-21.92l-14.41 -45.59c-3.87,-15.86 -2.87,-10.69 -7.54,-22.46 -5.07,-12.78 -2.33,-10.74 -3.48,-26.53 -1.02,-14.08 -3.98,-14.86 -7.46,-25.87l-8.12 -45.21c-0.35,-1.02 -1.63,-3.67 -1.96,-4.7 -0.87,-2.65 -1.65,-13.78 -2.27,-29.81zm3350 -1197.92c63.89,0 137.34,-3.4 200.02,-0.02 37.91,2.05 100.54,10.26 139.91,10.09 16.72,-0.07 33.44,-0.09 50.15,-0.16 37.2,-0.15 93.37,13.72 136.56,13.44 28.11,-0.18 22.11,2.22 42.91,7.08 14.39,3.37 29.65,0.91 46.33,3.67 12.9,2.14 22.64,8.52 40.76,9.23 46.5,1.83 122.06,22.55 130.19,23.14 42.81,3.1 9.57,3.91 62.33,11l62.57 14.09c8.18,2.45 8.5,4.66 16.5,6.83 10.04,2.73 12.68,0.61 22.69,3.98l39.47 10.53c11.47,4.01 4.1,3.41 16.53,6.81 8.94,2.44 12.67,1.63 22.05,4.62 9.72,3.1 3.92,3.29 16.42,6.92 9.63,2.79 13.65,1.09 23.02,3.64 7.67,2.09 8.38,4.2 16.55,6.78l50.32 16.34c0.76,0.29 1.61,0.68 2.34,0.99l77.86 28.81c5.52,1.7 3.86,0.77 8.11,1.89 21.67,5.67 -12.53,-4.52 5.32,1.35l4.78 1.89c7.18,3.07 -1.77,0.28 8.9,4.44 6.76,2.64 4.35,1.03 10.36,2.97l86.02 37.31c0.66,0.34 1.43,0.91 2.08,1.26 0.9,0.47 3.37,1.93 4.3,2.37 23.67,11.2 50.03,19.68 73.34,33.33 2.68,1.57 6.54,3.16 9.04,4.3l54.28 29.05c0.69,0.34 1.59,0.7 2.3,1.04 0.93,0.44 3.76,1.54 4.7,1.97 0.7,0.33 1.61,0.69 2.3,1.03l34.52 18.81c2.85,1.44 4.32,1.89 6.81,3.19 5.98,3.11 2.28,1.34 8.38,4.95l132.73 83.94c0.6,0.39 1.43,0.91 2.04,1.3 0.61,0.39 1.44,0.9 2.04,1.29 0.6,0.39 1.44,0.89 2.04,1.29 0.59,0.39 1.42,0.93 2.01,1.33l25.68 20.99c5.8,4.15 8.03,5.15 13.7,9.63l174.7 155.3c8.58,10.13 13.17,17.18 22.69,27.31 4.63,4.93 7.37,7.63 11.2,12.13 0.63,0.74 2.41,2.89 3.02,3.65l70.64 99.35c33.95,53.1 22.71,38.89 47.19,89.48l26.89 59.78c2.44,6.86 3.69,16.57 4.8,21.86l21.17 78.83c0.43,21.02 1.58,29.54 3,47 4.61,56.7 12.26,35.62 1.44,94.54 -4.15,22.56 -3.9,46.22 -4.43,68.9l-14.93 61.74c-4.61,12.19 -5.4,17.2 -7.7,28.97l-11.87 34.8c-2.81,6.98 0,0.24 -3.15,6.85 -3.89,8.15 -2.8,5.11 -5.9,14.1l-22.54 50.8c-3.38,8.7 1.78,-3.46 -1.76,4.91l-35.43 61.24c-2.95,5.13 -0.66,0.88 -3.84,6.16 -0.37,0.62 -0.87,1.46 -1.25,2.09 -0.37,0.63 -0.84,1.48 -1.22,2.11 -2.26,3.81 -1.6,2.98 -3.69,6.31 -3.2,5.08 -3.94,5.65 -7.97,12.04l-131.98 158.02c-2.98,2.88 -1.62,1.54 -5.22,4.78l-18.7 17.97c-0.49,0.48 -1.2,1.16 -1.7,1.63 -0.5,0.47 -1.22,1.15 -1.72,1.61l-88.4 74.93c-2.2,1.89 -3.35,2.74 -5.55,4.45l-3.81 2.86c-0.55,0.43 -1.34,1.01 -1.89,1.44l-9.07 7.6c-4.3,3.87 -6.13,5.82 -10.17,9.83 -11.79,11.7 -20.01,25.07 -27.02,39.65 -6.67,13.85 -7.28,24.02 -7.14,42.86 0.41,56.96 4.16,2000.11 -1.34,2025.33l-10.91 65.75c-11.65,34.51 -20.52,59.59 -39.41,90.59l-44.59 58.75 -49.36 40.64c-0.58,0.41 -1.41,0.94 -2.01,1.32l-28 15.33c-0.71,0.33 -1.61,0.69 -2.31,1.03l-6.38 3.62c-12.2,6.98 -20.86,12.22 -34.72,15.28 -15.61,3.44 -26.39,11.56 -44.22,12.44 -39.86,1.98 -59.13,9.98 -103.37,9.96l-906.67 0c1.46,-17.55 15.7,-32.21 23.93,-46.07l42.12 -84.54c2.41,-5.63 1.82,-5.46 3.3,-10.03 4.65,-14.31 8.46,-17.92 10.48,-32.86 2.84,-21.07 8.09,-25.43 10.68,-45.98 1.32,-10.48 3.77,-13.64 6.71,-23.29 12.5,-41.06 6.11,-1380.84 6.11,-1470.56 0,-44.72 -4.13,-547.98 0.81,-565.86 4.37,-15.84 28.58,-30.58 41.07,-42.26 0.5,-0.47 1.2,-1.16 1.7,-1.63l3.41 -3.26c23.46,-21.26 48.69,-39.44 70.24,-63.09 45.32,-49.74 89.96,-98.82 130.39,-152.94 4.08,-5.47 7.48,-9.74 11.44,-15.22l89.87 -153.47c0.35,-0.65 0.89,-1.45 1.23,-2.11 0.35,-0.67 0.81,-1.51 1.15,-2.19l20.63 -42.7c5.05,-9.47 3.47,-10.27 7.32,-19.35l36.04 -107.29 17.9 -95.43c2.44,-12.56 4.24,-12.36 5.91,-20.76 5.46,-27.5 4.22,-137.23 4.22,-169.11 0,-22.51 -3.24,-33.56 -7.84,-52.16 -4.26,-17.19 -2.94,-41.66 -6.96,-56.37 -3.01,-11 -6.08,-8.69 -8.07,-21.93 -4.2,-27.96 -7.16,-24.31 -10.96,-49.04 -2.72,-17.68 -8.91,-25.35 -13.17,-40.17 -0.25,-0.87 -0.45,-1.77 -0.72,-2.61l-6.37 -13.63c-2.97,-7.62 -1.26,-5.61 -3.49,-13.17l-23.13 -53.54c-2.8,-6.13 -3.02,-5.27 -5.66,-11 -2.68,-5.82 -2.15,-6.38 -4.61,-12.06l-32.37 -60.97c-0.37,-0.63 -0.83,-1.49 -1.21,-2.12 -0.37,-0.62 -0.87,-1.46 -1.26,-2.07l-5.3 -8.03c-0.38,-0.63 -0.88,-1.45 -1.25,-2.09l-57.61 -89.06c-9.15,-12.09 -17.36,-23.76 -27.41,-35.92l-24.1 -29.24c-0.61,-0.75 -2.44,-2.86 -3.07,-3.6l-192.41 -187.59c-0.5,-0.47 -1.2,-1.17 -1.7,-1.63 -0.5,-0.47 -1.2,-1.17 -1.7,-1.64 -2.59,-2.43 -5.9,-5.56 -8.76,-7.91l-72.26 -54.4c-0.56,-0.42 -1.33,-1.02 -1.9,-1.43l-147.07 -96.27c-0.68,-0.34 -1.58,-0.72 -2.26,-1.07 -34.06,-17.66 -66.22,-40.15 -101.46,-55.2l-20.39 -9.61c-0.95,-0.43 -3.64,-1.66 -4.56,-2.11l-58.33 -28.34c-29.24,-14.05 -59.08,-22 -85.98,-40.69z"/>
   <path class="fil0" d="M6136.17 6595.74c0,170.08 -4.87,1733.9 2.44,1760.89l8.02 18.65c3.66,6.42 5.29,7.78 9.27,14.06 6.42,10.12 13.2,19.5 23.72,26.28l31.37 18.64c25.47,11.34 68.48,6.53 93.08,-7.28 37.06,-20.8 57.15,-55.37 61.63,-98.37 6.05,-57.97 0.46,-151.1 0.46,-212.87l0 -1380c0,-17.78 0.13,-35.61 -0.06,-53.39 -0.43,-39.46 8.24,-36.55 32.17,-64.49l188.5 -264.83c0.37,-0.63 0.85,-1.48 1.23,-2.1 0.52,-0.85 2.03,-3.26 2.55,-4.12 3.84,-6.32 1.88,-2.57 4.9,-8.43l72.01 -141.33c0.33,-0.69 0.77,-1.54 1.12,-2.21l42.09 -104.58c0.26,-0.81 0.57,-1.69 0.87,-2.46 0.29,-0.74 0.75,-1.56 1.07,-2.26 3.77,-8.17 0.6,2.24 4.82,-8.52l26.28 -80.38c2.23,-8.17 5.4,-10.93 7.57,-19.09 2.46,-9.23 0.72,-14.35 2.87,-23.8 3.94,-17.33 7.04,-17.43 11.39,-41.94 3.15,-17.72 2.04,-8.33 6.37,-20.3 5.51,-15.25 3.28,-26.31 10.3,-43.04 3.4,-8.1 3.9,-11.35 4.05,-22.62 0.35,-26.03 0.26,-27.34 6.26,-47.07 4.03,-13.27 4.32,-34.28 5.96,-47.37l7.8 -45.54c1.96,-36.15 11.54,-144.76 -3.91,-179.69 -7.21,-16.3 -15.34,-30.13 -27.99,-42.01 -31.25,-29.35 -85.83,-42.92 -125.32,-22.19l-12.8 7.2c-14.48,9.1 -24.7,17.73 -34.19,32.47 -0.39,0.6 -0.89,1.45 -1.29,2.04 -0.39,0.59 -0.96,1.39 -1.36,1.97 -0.4,0.58 -1.02,1.33 -1.43,1.91 -0.4,0.57 -1.04,1.31 -1.44,1.89 -0.4,0.58 -1.02,1.33 -1.41,1.92 -18.19,27.1 -12.76,62.11 -16.1,93.9l-9.66 97.01c-0.76,29.45 1.35,27.64 -6.25,50.41 -5.98,17.88 -1.72,28.45 -4.88,48.45l-21.65 85.02c-3.76,29.5 -25.94,103.69 -39.7,133.64 -13.22,28.78 -21.3,59.61 -34.9,88.43l-43.15 90.19c-3.58,6.35 -5.74,11.8 -9.07,17.6l-49.68 83.65c-3.54,5.97 -1.52,2.84 -5.04,8.3l-18.41 28.26c-0.43,0.55 -1.02,1.34 -1.44,1.89 -0.43,0.55 -1.04,1.32 -1.46,1.87l-29.33 40.67c-5.17,6.17 -7.78,9.5 -11.41,15.25 -20.64,32.63 -46.79,65 -73.21,93.46l-9.59 10.41c-5.41,5.78 -7.45,7.34 -12.65,14.02l-25.81 30.85c-0.45,0.53 -1.1,1.27 -1.54,1.8l-8.79 11.21c-0.4,0.59 -0.89,1.45 -1.28,2.06 -10.99,17.11 -23.98,34.89 -23.98,56.02z"/>
   <path class="fil0" d="M3182.83 7389.07l5.71 34.29c4.54,17.28 7.54,26.96 18.09,41.91 7.44,10.52 15.57,20.58 26.44,26.89 2.32,1.35 6.24,3.24 8.59,4.74 0.6,0.39 1.37,0.98 1.96,1.37 0.59,0.39 1.31,1.04 1.9,1.43l53.96 16.04c11.13,0 48.32,-12.67 59.64,-20.36 0.59,-0.4 1.41,-0.93 2,-1.33 22.65,-15.39 28.47,-23.45 46.41,-40.26l73.73 -72.94c3.62,-3.26 2.24,-1.9 5.22,-4.78l466.67 -466.67c0.49,-0.48 1.2,-1.16 1.69,-1.65l104.86 -105.15c4.94,-5.41 4.87,-5.99 11.11,-12.22l75.35 -74.65c2.11,-1.89 1.93,-1.58 5.28,-4.72l156.1 -157.23c36.6,-34.3 69.78,-72.75 107.06,-106.27l173.57 -173.09c0.69,-0.68 2.6,-2.7 3.26,-3.4l63.48 -73.19c7.78,-11.56 7.5,-17.12 12.85,-33.82 8.3,-25.93 3.6,-39.3 -4.87,-65.02 -7.87,-23.92 -26.91,-42.07 -47.74,-55.6 -5.34,-3.46 -4.76,-3.49 -7.86,-5.47 -12.76,-8.12 -0.15,-2.95 -17.54,-5.79 -11.79,-1.93 -24.61,-9.2 -36.1,-8.2 -8.65,0.76 -13.11,4.36 -16.88,5.66 -23.09,7.96 -28.68,-2.72 -75.34,41.41 -2.74,2.59 -7.47,7.32 -9.98,10.02l-46.11 47.23c-2.33,2.23 -3.02,2.69 -5.28,4.72l-15.28 14.72c-0.47,0.5 -1.14,1.23 -1.6,1.74 -0.46,0.51 -1.11,1.25 -1.57,1.76l-16.67 16.67c-0.51,0.46 -1.26,1.11 -1.76,1.57l-16.46 16.87c-4.46,4.99 -6.33,7.07 -11.55,11.79 -1.69,1.52 -4.35,3.78 -5.33,4.67l-29.79 30.21c-2.15,1.93 -2.96,2.56 -5.28,4.72l-28.06 28.61c-2.15,1.93 -2.96,2.56 -5.28,4.72l-29.84 30.16c-0.51,0.46 -1.25,1.11 -1.76,1.57l-96.46 96.87c-0.72,0.65 -2.83,2.47 -3.54,3.13l-68.4 68.26c-0.5,0.47 -1.22,1.15 -1.71,1.62l-61.46 61.87c-0.51,0.46 -1.25,1.11 -1.76,1.57l-146.67 146.67c-0.46,0.5 -1.11,1.25 -1.57,1.76l-116.67 116.67c-0.51,0.46 -1.25,1.11 -1.76,1.57l-13.33 13.33c-0.46,0.51 -1.11,1.25 -1.57,1.76l-16.67 16.67c-0.51,0.46 -1.25,1.11 -1.76,1.57l-96.46 96.88c-0.72,0.65 -2.83,2.47 -3.54,3.12l-118 118.66c-4.72,5.22 -6.8,7.09 -11.79,11.55l-15.28 14.72c-0.47,0.5 -1.13,1.23 -1.6,1.73l-146.24 147.1c-3.04,2.81 -2.19,1.83 -5.33,4.66l-97.33 106.01c-0.52,0.85 -2.06,3.25 -2.58,4.09 -7.03,11.22 -7.37,22.63 -11.63,35.04 -3.73,10.87 -3.91,-5.65 -3.91,9.42z"/>
   <path class="fil0" d="M3026.17 6602.41c0,95.05 93.88,160.46 174.43,107.77 5.07,-3.31 1.65,-1.14 6.19,-3.82l136.34 -130.33c0.5,-0.47 1.2,-1.17 1.69,-1.64l35 -35c2.38,-2.35 2.2,-2.2 4.99,-5.01l8.19 -8.47c5.09,-5.5 4.17,-4.89 9.81,-10.19l40.31 -39.69c0.5,-0.47 1.2,-1.17 1.69,-1.64l49.76 -50.24c5.19,-5.62 3.16,-3.66 8.24,-8.43l188.17 -188.5c0.47,-0.5 1.15,-1.22 1.62,-1.72 0.47,-0.5 1.16,-1.2 1.63,-1.7 0.47,-0.5 1.17,-1.2 1.63,-1.7l17.56 -25.78c9.26,-14 16.08,-39.1 16.08,-60.59 0,-20.72 -8.46,-37.17 -17.63,-52.37 -11.92,-19.76 -31.78,-40.65 -54.25,-49.09 -7.48,-2.81 -8.93,-1.31 -17.05,-2.96 -30.85,-6.28 -17.7,-10.4 -49.64,-0.85 -22.78,6.81 -17.84,1.22 -40.55,16.17l-10.08 6.59c-27.42,17.98 -477.01,472.09 -487.09,486.24 -11.96,16.78 -27.06,42.97 -27.06,62.94z"/>
   <path class="fil0" d="M4126.17 7392.41c0,26.47 9.35,51 23.5,73.17l28.94 27.73 38 15.34c32.9,10.09 18.58,8.06 51.69,-0.79 17.16,-4.59 17.75,-1.35 32.22,-11.12 2.61,-1.76 4.41,-2.94 5.99,-4.01l62.72 -57.28c0.47,-0.5 1.17,-1.2 1.64,-1.69l66.67 -66.67c4.83,-4.98 5.02,-5.17 10,-10l130 -130c0.48,-0.48 1.17,-1.19 1.66,-1.67l35 -35c3.25,-3.16 2.62,-2.51 5.15,-4.85 5.5,-5.09 4.89,-4.17 10.19,-9.82l136.48 -136.85c18.48,-19.97 26.87,-26.02 43.13,-50.2l6.63 -10.04c4.65,-8.66 2.02,-3.97 5.23,-14.77 12.09,-40.72 11.7,-44.29 -2.52,-83.8l-30.36 -39.63c-30.59,-25.01 -52.13,-28.06 -91.94,-28.06 -10.76,0 -27.16,7.61 -36.67,13.33l-66.4 56.93c-0.48,0.48 -1.19,1.18 -1.67,1.66l-53.26 53.41c-0.5,0.48 -1.22,1.15 -1.71,1.63l-80.04 79.96c-0.68,0.69 -2.63,2.67 -3.3,3.37l-50 50c-1.14,1.11 -3.2,3.15 -5.03,4.97 -0.49,0.48 -1.18,1.19 -1.66,1.67 -0.48,0.48 -1.18,1.19 -1.67,1.67l-41.65 41.69c-0.48,0.49 -1.15,1.22 -1.62,1.71l-65.04 64.96c-0.48,0.49 -1.15,1.21 -1.63,1.71l-20.07 19.93c-0.48,0.48 -1.18,1.19 -1.66,1.67l-118.86 127.81c-0.37,0.63 -0.88,1.46 -1.25,2.09l-4.91 8.42c-6.15,13.04 -11.91,25.67 -11.91,41.42z"/>
   <path class="fil0" d="M3812.83 7709.07c0,44.35 5.59,41.52 21.48,68.52 6.58,11.19 1.72,8.02 13.1,16.9 34.5,26.93 68.54,44.41 112.64,28.46 0.78,-0.28 1.61,-0.66 2.39,-0.95 19.44,-7.21 27.41,-12.17 45.8,-27.54 26.93,-22.5 47.67,-84.15 25.5,-126.3l-19.56 -30.44c-0.7,-0.86 -5.63,-8.86 -19.41,-17.26l-6.25 -3.75c-15.79,-9.47 -14.69,-11.37 -28.47,-14.87 -20.7,-5.25 -61.61,-4.39 -80.91,6.85 -6.63,3.86 -10.48,7.14 -16.07,10.59 -0.62,0.38 -1.48,0.85 -2.11,1.22l-4.3 2.37c-0.62,0.38 -1.5,0.83 -2.1,1.23l-13.68 12.99c-0.43,0.55 -1.04,1.31 -1.45,1.88 -0.42,0.57 -0.97,1.38 -1.37,1.97 -0.4,0.59 -0.9,1.44 -1.29,2.04 -16.16,25.06 -23.94,32.56 -23.94,66.06z"/>
   <path class="fil0" d="M3812.83 5825.74c0,18.4 1.02,31.33 8.42,44.91 17.61,32.28 31.81,46.32 63.45,63.22 17.52,9.36 68.33,8.57 85.71,-0.54 0.66,-0.35 1.48,-0.85 2.13,-1.2l6.42 -3.58c38.88,-22.8 63.87,-54.98 63.87,-102.8 0,-16.47 -2,-30.14 -7.9,-42.1l-14.39 -22.28c-16.55,-23.4 -50.96,-48.95 -74.38,-48.95 -36.59,0 -46.76,-3.4 -81,19 -17.43,11.39 -35.31,32.4 -43.69,49.65 -5.96,12.29 -8.64,27.69 -8.64,44.69z"/>
  </g>
 </g>
</svg>
